<svg width="184" height="51" viewBox="0 0 184 51" fill="none" xmlns="http://www.w3.org/2000/svg">
<path d="M67.6 35.216C65.92 35.216 64.448 34.856 63.184 34.136C61.936 33.416 60.976 32.4 60.304 31.088C59.632 29.76 59.296 28.208 59.296 26.432C59.296 24.672 59.632 23.136 60.304 21.824C60.976 20.496 61.936 19.48 63.184 18.776C64.448 18.056 65.92 17.696 67.6 17.696C68.752 17.696 69.832 17.88 70.84 18.248C71.864 18.6 72.712 19.096 73.384 19.736L72.376 21.992C71.608 21.368 70.84 20.92 70.072 20.648C69.32 20.36 68.512 20.216 67.648 20.216C66 20.216 64.72 20.752 63.808 21.824C62.912 22.896 62.464 24.432 62.464 26.432C62.464 28.448 62.912 30 63.808 31.088C64.704 32.16 65.984 32.696 67.648 32.696C68.512 32.696 69.32 32.56 70.072 32.288C70.84 32 71.608 31.544 72.376 30.92L73.384 33.176C72.712 33.816 71.864 34.32 70.84 34.688C69.832 35.04 68.752 35.216 67.6 35.216ZM76.0617 17.336H79.0377V35H76.0617V17.336ZM87.8155 35.192C86.5835 35.192 85.4955 34.936 84.5515 34.424C83.6235 33.912 82.9035 33.184 82.3915 32.24C81.8955 31.28 81.6475 30.16 81.6475 28.88C81.6475 27.6 81.8955 26.488 82.3915 25.544C82.9035 24.584 83.6235 23.848 84.5515 23.336C85.4955 22.824 86.5835 22.568 87.8155 22.568C89.0315 22.568 90.1035 22.824 91.0315 23.336C91.9595 23.848 92.6715 24.584 93.1675 25.544C93.6795 26.488 93.9355 27.6 93.9355 28.88C93.9355 30.16 93.6795 31.28 93.1675 32.24C92.6715 33.184 91.9595 33.912 91.0315 34.424C90.1035 34.936 89.0315 35.192 87.8155 35.192ZM87.7915 32.84C88.8155 32.84 89.5915 32.512 90.1195 31.856C90.6635 31.184 90.9355 30.192 90.9355 28.88C90.9355 27.584 90.6635 26.6 90.1195 25.928C89.5755 25.24 88.8075 24.896 87.8155 24.896C86.8075 24.896 86.0315 25.24 85.4875 25.928C84.9435 26.6 84.6715 27.584 84.6715 28.88C84.6715 30.192 84.9355 31.184 85.4635 31.856C86.0075 32.512 86.7835 32.84 87.7915 32.84ZM107.563 22.88V35H104.635V33.128C104.251 33.8 103.739 34.312 103.099 34.664C102.459 35.016 101.723 35.192 100.891 35.192C97.9306 35.192 96.4506 33.528 96.4506 30.2V22.88H99.4266V30.224C99.4266 31.104 99.6026 31.752 99.9546 32.168C100.323 32.584 100.883 32.792 101.635 32.792C102.515 32.792 103.219 32.504 103.747 31.928C104.275 31.352 104.539 30.584 104.539 29.624V22.88H107.563ZM122.411 17.336V35H119.46V33.056C119.092 33.728 118.564 34.256 117.876 34.64C117.188 35.008 116.404 35.192 115.523 35.192C114.484 35.192 113.556 34.928 112.74 34.4C111.924 33.872 111.284 33.128 110.82 32.168C110.372 31.192 110.148 30.08 110.148 28.832C110.148 27.584 110.372 26.488 110.82 25.544C111.268 24.6 111.9 23.872 112.715 23.36C113.532 22.832 114.468 22.568 115.523 22.568C116.388 22.568 117.156 22.752 117.828 23.12C118.516 23.472 119.044 23.976 119.412 24.632V17.336H122.411ZM116.316 32.84C117.308 32.84 118.076 32.496 118.62 31.808C119.18 31.12 119.46 30.144 119.46 28.88C119.46 27.616 119.188 26.64 118.644 25.952C118.1 25.264 117.332 24.92 116.34 24.92C115.332 24.92 114.548 25.264 113.988 25.952C113.444 26.624 113.172 27.584 113.172 28.832C113.172 30.096 113.444 31.08 113.988 31.784C114.548 32.488 115.324 32.84 116.316 32.84ZM143.833 30.992H135.481L133.753 35H130.633L138.361 17.912H140.881L148.633 35H145.537L143.833 30.992ZM142.801 28.592L139.657 21.272L136.513 28.592H142.801ZM157.177 22.568C158.217 22.568 159.137 22.84 159.937 23.384C160.753 23.912 161.385 24.664 161.833 25.64C162.297 26.6 162.529 27.704 162.529 28.952C162.529 30.2 162.305 31.296 161.857 32.24C161.409 33.184 160.777 33.912 159.961 34.424C159.161 34.936 158.233 35.192 157.177 35.192C156.297 35.192 155.513 35.008 154.825 34.64C154.137 34.256 153.609 33.728 153.241 33.056V40.184H150.265V26.312C150.265 25.032 150.201 23.888 150.073 22.88H152.881L153.121 24.968C153.441 24.216 153.961 23.632 154.681 23.216C155.401 22.784 156.233 22.568 157.177 22.568ZM156.361 32.84C157.369 32.84 158.145 32.504 158.689 31.832C159.233 31.16 159.505 30.2 159.505 28.952C159.505 27.688 159.233 26.704 158.689 26C158.145 25.28 157.377 24.92 156.385 24.92C155.361 24.92 154.577 25.264 154.033 25.952C153.489 26.64 153.217 27.624 153.217 28.904C153.217 30.168 153.489 31.144 154.033 31.832C154.577 32.504 155.353 32.84 156.361 32.84ZM172.06 22.568C173.1 22.568 174.02 22.84 174.82 23.384C175.636 23.912 176.268 24.664 176.716 25.64C177.18 26.6 177.412 27.704 177.412 28.952C177.412 30.2 177.188 31.296 176.74 32.24C176.292 33.184 175.66 33.912 174.844 34.424C174.044 34.936 173.116 35.192 172.06 35.192C171.18 35.192 170.396 35.008 169.708 34.64C169.02 34.256 168.492 33.728 168.124 33.056V40.184H165.148V26.312C165.148 25.032 165.084 23.888 164.956 22.88H167.764L168.004 24.968C168.324 24.216 168.844 23.632 169.564 23.216C170.284 22.784 171.116 22.568 172.06 22.568ZM171.244 32.84C172.252 32.84 173.028 32.504 173.572 31.832C174.116 31.16 174.388 30.2 174.388 28.952C174.388 27.688 174.116 26.704 173.572 26C173.028 25.28 172.26 24.92 171.268 24.92C170.244 24.92 169.46 25.264 168.916 25.952C168.372 26.64 168.1 27.624 168.1 28.904C168.1 30.168 168.372 31.144 168.916 31.832C169.46 32.504 170.236 32.84 171.244 32.84Z" fill="#212353"/>
<path d="M43.1422 35.9467C44.9577 32.8874 46 29.3154 46 25.5C46 20.3995 44.1373 15.7341 41.0551 12.1469C40.5458 12.0848 40.0303 12.0533 39.5105 12.0533C36.8615 12.0533 34.3227 12.8693 32.1667 14.4107C31.1263 15.1549 30.2 16.0518 29.4181 17.072C28.626 18.1013 27.9965 19.2373 27.5454 20.4533L26.8163 22.4053L24.8282 22.9333C23.4556 23.3098 22.2393 24.1274 21.3609 25.264C20.464 26.4373 19.9866 27.84 19.9866 29.3333C19.9843 30.2022 20.1514 31.0629 20.4783 31.8658C20.8051 32.6686 21.2852 33.3976 21.8907 34.0107C23.1182 35.2587 24.7496 35.9467 26.4858 35.9467H43.1422Z" fill="#F063B8"/>
<path d="M39.9914 40H26.4858C20.6948 40 16 35.2267 16 29.3333C16 24.3787 19.3204 20.2187 23.8158 19.0187C25.8848 13.4703 30.7121 9.30631 36.5923 8.25725C33.3948 6.19606 29.5871 5 25.5 5C14.1782 5 5 14.1782 5 25.5C5 36.8218 14.1782 46 25.5 46C31.1587 46 36.2819 43.7072 39.9914 40Z" fill="#F063B8"/>
</svg>
