<svg fill="none" viewBox="0 0 603 253">
    <path d="M109.213 249.51V201.353H0V169.946L116.147 3.48965H152.205V167.154H187.222V201.353H152.205V249.51H109.213ZM109.213 167.154V56.5324H117.534L33.2839 177.623V167.154H109.213Z" />
    <path d="M297.686 253C269.025 253 246.951 242.066 231.465 220.197C215.979 198.096 208.236 166.689 208.236 125.977C208.236 84.7986 215.979 53.508 231.465 32.1048C246.951 10.7016 269.025 0 297.686 0C326.579 0 348.652 10.7016 363.907 32.1048C379.394 53.508 387.137 84.6823 387.137 125.628C387.137 166.573 379.394 198.096 363.907 220.197C348.652 242.066 326.579 253 297.686 253ZM297.686 216.01C313.404 216.01 325.076 208.798 332.704 194.374C340.331 179.717 344.145 156.802 344.145 125.628C344.145 104.69 342.411 87.7067 338.944 74.6786C335.708 61.6506 330.623 52.1122 323.689 46.0635C316.755 39.7821 308.087 36.6414 297.686 36.6414C282.2 36.6414 270.527 43.737 262.669 57.9283C255.041 71.8869 251.227 94.4533 251.227 125.628C251.227 146.333 252.961 163.432 256.428 176.926C259.895 190.186 264.98 200.074 271.683 206.588C278.617 212.869 287.285 216.01 297.686 216.01Z" />
    <path d="M524.991 249.51V201.353H415.778V169.946L531.925 3.48965H567.983V167.154H603V201.353H567.983V249.51H524.991ZM524.991 167.154V56.5324H533.312L449.062 177.623V167.154H524.991Z" />
</svg>
