<svg viewBox="0 0 24 24" fill="none" xmlns="http://www.w3.org/2000/svg">
    <path d="M21 18.5H14.82C14.6707 18.0806 14.4299 17.6997 14.1151 17.3849C13.8003 17.0701 13.4194 16.8293 13 16.68V13.5H16.17C17.2289 13.5348 18.2637 13.1802 19.0787 12.5033C19.8937 11.8264 20.4323 10.8742 20.5924 9.82693C20.7526 8.77968 20.5233 7.71005 19.9478 6.82051C19.3724 5.93097 18.4909 5.28326 17.47 4.99998C16.9352 3.81505 16.0301 2.83587 14.8907 2.20979C13.7514 1.58371 12.4396 1.3446 11.1526 1.52845C9.86569 1.7123 8.67327 2.30916 7.75483 3.22921C6.83639 4.14925 6.24161 5.34271 6.06 6.62998C5.24619 6.85819 4.54245 7.37318 4.07876 8.07983C3.61507 8.78648 3.42276 9.63705 3.53734 10.4745C3.65192 11.3119 4.06565 12.0795 4.70212 12.6356C5.33859 13.1917 6.1548 13.4988 7 13.5H11V16.68C10.5806 16.8293 10.1997 17.0701 9.8849 17.3849C9.57011 17.6997 9.32932 18.0806 9.18 18.5H3C2.73478 18.5 2.48043 18.6053 2.29289 18.7929C2.10536 18.9804 2 19.2348 2 19.5C2 19.7652 2.10536 20.0195 2.29289 20.2071C2.48043 20.3946 2.73478 20.5 3 20.5H9.18C9.3902 21.0791 9.77363 21.5795 10.2782 21.9331C10.7827 22.2868 11.3839 22.4765 12 22.4765C12.6161 22.4765 13.2173 22.2868 13.7218 21.9331C14.2264 21.5795 14.6098 21.0791 14.82 20.5H21C21.2652 20.5 21.5196 20.3946 21.7071 20.2071C21.8946 20.0195 22 19.7652 22 19.5C22 19.2348 21.8946 18.9804 21.7071 18.7929C21.5196 18.6053 21.2652 18.5 21 18.5ZM7 11.5C6.60218 11.5 6.22064 11.3419 5.93934 11.0606C5.65804 10.7793 5.5 10.3978 5.5 9.99998C5.5 9.60215 5.65804 9.22062 5.93934 8.93932C6.22064 8.65801 6.60218 8.49998 7 8.49998C7.26522 8.49998 7.51957 8.39462 7.70711 8.20708C7.89464 8.01955 8 7.76519 8 7.49998C7.99738 6.55051 8.33259 5.63107 8.94569 4.90607C9.55878 4.18108 10.4098 3.69781 11.3465 3.5427C12.2832 3.38758 13.2446 3.57073 14.0586 4.05938C14.8727 4.54804 15.4864 5.31035 15.79 6.20998C15.8472 6.38182 15.9499 6.53491 16.0873 6.65291C16.2247 6.77091 16.3915 6.84939 16.57 6.87998C17.1113 6.97024 17.6027 7.25024 17.9564 7.66985C18.31 8.08945 18.5027 8.62124 18.5 9.16998C18.4974 9.78712 18.251 10.3782 17.8147 10.8146C17.3783 11.251 16.7871 11.4973 16.17 11.5H7ZM12 20.5C11.8022 20.5 11.6089 20.4413 11.4444 20.3314C11.28 20.2216 11.1518 20.0654 11.0761 19.8827C11.0004 19.6999 10.9806 19.4989 11.0192 19.3049C11.0578 19.1109 11.153 18.9327 11.2929 18.7929C11.4327 18.653 11.6109 18.5578 11.8049 18.5192C11.9989 18.4806 12.2 18.5004 12.3827 18.5761C12.5654 18.6518 12.7216 18.78 12.8315 18.9444C12.9414 19.1089 13 19.3022 13 19.5C13 19.7652 12.8946 20.0195 12.7071 20.2071C12.5196 20.3946 12.2652 20.5 12 20.5Z" />
</svg>
