<svg width="360" height="234" viewBox="0 0 360 234" fill="none" xmlns="http://www.w3.org/2000/svg">
<g clip-path="url(#clip0_1417_2197)">
<path d="M360 110.175C360 119.45 356.491 128.382 350.172 135.187C343.854 141.993 335.192 146.17 325.919 146.883C325.607 146.906 325.29 146.93 324.973 146.944V112.002C324.973 111.653 324.895 111.308 324.744 110.993C324.594 110.677 324.374 110.4 324.102 110.18C324.07 110.148 324.035 110.119 323.998 110.095C323.963 110.067 323.927 110.042 323.889 110.02C323.556 109.806 323.175 109.679 322.781 109.65C322.386 109.622 321.991 109.692 321.631 109.855L321.238 108.995C321.668 108.8 322.134 108.699 322.606 108.698L295.645 85.5373C295.853 85.3013 296.07 85.0701 296.288 84.8388C301.371 79.496 307.944 75.7958 315.158 74.2165C322.371 72.6372 329.894 73.2512 336.754 75.9793C343.614 78.7074 349.496 83.4241 353.64 89.52C357.784 95.616 359.999 102.811 360 110.175Z" fill="#F2F2F2"/>
<path d="M9.36137 135.279C9.22729 134.596 9.24504 133.892 9.41337 133.216C9.5817 132.541 9.89651 131.91 10.3356 131.369C10.7747 130.828 11.3275 130.39 11.9549 130.085C12.5824 129.78 13.2693 129.616 13.9672 129.604L35.2495 104.341L40.5628 111.115L18.8731 134.627C18.815 135.797 18.3284 136.906 17.5054 137.742C16.6824 138.579 15.5803 139.085 14.4079 139.166C13.2354 139.246 12.0741 138.895 11.144 138.178C10.2139 137.462 9.57967 136.431 9.3614 135.279H9.36137Z" fill="#FFB8B8"/>
<path d="M110.424 104.185C110.275 104.4 110.143 104.626 110.03 104.861L86.7915 108.174L83.2628 103.707L75.8057 108.136L82.8153 119.034L111.157 110.703C111.905 111.378 112.841 111.81 113.841 111.942C114.841 112.073 115.858 111.898 116.756 111.439C117.654 110.981 118.39 110.26 118.868 109.374C119.345 108.488 119.54 107.478 119.428 106.478C119.315 105.478 118.9 104.537 118.238 103.778C117.576 103.019 116.698 102.479 115.72 102.23C114.743 101.981 113.712 102.035 112.766 102.384C111.82 102.733 111.003 103.361 110.424 104.185Z" fill="#FFB8B8"/>
<path d="M115 109.5H113.5L111.5 110.5V112.5V230.5L112 232.5L113.5 233.5H116H141H178H214H255.5H274.5H316.5H322.5L324.5 233L325 232L325.5 230.5V219V175V121.5V111L324 109.5L322.5 109L320.5 110L297.5 120L271 132L246.5 143.5L222 154.5L218.5 156L216 155L212 153L150.5 125.5L122 112.5L115 109.5Z" fill="#E6E6E6"/>
<path opacity="0.3" d="M220 20L323 108.5V109L316 112L288 124.5L252.5 140.5L219.5 155.5H217L208 151.5L185.5 141L155.5 127.5L127.5 115L114 109L114.5 108.5L122.5 101.5L140.5 86L161 68.5L177 54.5L188 45L199.5 35L216 20.5L218.5 19.5L220 20Z" fill="white"/>
<path d="M70.7295 188.592L74.8419 192.675L92.5921 178.802L86.5229 172.776L70.7295 188.592Z" fill="#FFB8B8"/>
<path d="M78.9697 204.357L66.0458 191.525L71.0177 186.546L78.9483 194.42C79.604 195.071 80.1248 195.844 80.4807 196.696C80.8367 197.548 81.0209 198.461 81.0229 199.384C81.0249 200.307 80.8446 201.221 80.4923 202.074C80.14 202.927 79.6226 203.703 78.9697 204.357L78.9697 204.357Z" fill="white"/>
<path d="M48.8701 227.754H54.6732L57.4337 205.434H48.8691L48.8701 227.754Z" fill="#FFB8B8"/>
<path d="M65.8652 233.126L47.6271 233.127L47.6268 226.101L58.8184 226.1C59.7437 226.1 60.66 226.282 61.515 226.635C62.3699 226.988 63.1468 227.506 63.8011 228.158C64.4555 228.811 64.9746 229.585 65.3287 230.438C65.6829 231.29 65.8652 232.204 65.8652 233.126Z" fill="white"/>
<path d="M47.6092 210.515L40.9992 161.906C39.9648 154.56 40.2858 147.087 41.9465 139.856C43.3029 134.045 45.1353 130.02 47.3931 127.893C47.7494 127.559 48.2055 127.352 48.6915 127.301L70.5155 125.034C70.9359 124.992 71.3598 125.069 71.7378 125.257C72.1158 125.446 72.4323 125.737 72.6503 126.098L73.3678 127.29C73.4548 127.435 73.5251 127.589 73.5771 127.75L78.1913 142.014C78.2602 142.229 78.3713 142.429 78.5183 142.601C78.6652 142.773 78.8451 142.915 79.0473 143.017C86.3121 146.716 109.911 159.201 108.56 164.587C107.291 169.649 95.4111 177.855 91.8002 180.249C91.4325 180.495 90.9994 180.624 90.5571 180.621C90.1148 180.617 89.6837 180.481 89.3198 180.231L83.3259 176.141C83.0332 175.942 82.7928 175.675 82.6246 175.364C82.4565 175.052 82.3655 174.705 82.3593 174.352C82.3531 173.998 82.4319 173.649 82.589 173.332C82.7462 173.015 82.9771 172.74 83.2626 172.53L87.396 169.493C87.649 169.307 87.8463 169.056 87.9668 168.766C88.0873 168.477 88.1263 168.16 88.0797 167.85C88.0331 167.54 87.9027 167.249 87.7024 167.008C87.5022 166.766 87.2397 166.584 86.9431 166.48L64.7442 158.713C64.495 158.626 64.229 158.597 63.9667 158.628C63.7044 158.659 63.4528 158.75 63.2313 158.894C63.0097 159.037 62.8241 159.229 62.6887 159.455C62.5533 159.682 62.4717 159.936 62.4502 160.198L58.3571 210.082C58.312 210.617 58.0741 211.118 57.6875 211.491C57.3008 211.864 56.7917 212.086 56.2541 212.114L49.9211 212.43C49.8826 212.431 49.8444 212.432 49.8062 212.432C49.2687 212.434 48.7489 212.241 48.3444 211.888C47.9399 211.535 47.6785 211.047 47.6092 210.515Z" fill="#261FA6"/>
<path d="M57.6179 84.7889C64.0386 84.7889 69.2436 79.5987 69.2436 73.1962C69.2436 66.7937 64.0386 61.6035 57.6179 61.6035C51.1972 61.6035 45.9922 66.7937 45.9922 73.1962C45.9922 79.5987 51.1972 84.7889 57.6179 84.7889Z" fill="#FFB8B8"/>
<path d="M46.7441 125.907L38.1865 94.7717L38.3331 94.6731C38.5169 94.5496 56.962 82.4044 78.5577 92.1918L78.9492 92.4158L73.8784 124.732C73.7678 125.469 73.4025 126.145 72.8457 126.643C72.2888 127.141 71.5753 127.429 70.828 127.458L49.9619 128.259C49.9198 128.26 49.8779 128.261 49.8362 128.261C49.1328 128.263 48.4485 128.033 47.8894 127.607C47.3304 127.181 46.9278 126.584 46.7441 125.907Z" fill="white"/>
<path d="M37.8608 115.041L30.7336 106.868C30.3903 106.476 30.1971 105.975 30.1878 105.454C30.1786 104.933 30.3541 104.426 30.6832 104.021L38.1339 94.8433L43.8535 96.3988L46.8858 106.982L41.3569 114.858C41.164 115.134 40.9102 115.363 40.6148 115.526C40.3195 115.689 39.9906 115.783 39.6534 115.8C39.6135 115.802 39.5738 115.803 39.5342 115.803C39.2167 115.803 38.9029 115.735 38.6141 115.604C38.3253 115.473 38.0684 115.281 37.8608 115.041Z" fill="white"/>
<path d="M77.2734 113.339C76.9362 113.322 76.6072 113.228 76.3119 113.065C76.0166 112.902 75.7628 112.673 75.5699 112.397L70.041 104.521L72.7004 93.3804L77.9665 91.9482L78.9492 92.4158L86.2435 101.56C86.5727 101.965 86.7481 102.472 86.7389 102.993C86.7297 103.514 86.5364 104.015 86.1931 104.407L79.066 112.58C78.8584 112.819 78.6015 113.011 78.3127 113.143C78.0239 113.274 77.71 113.342 77.3926 113.341C77.3531 113.341 77.3132 113.34 77.2734 113.339Z" fill="white"/>
<path d="M324.973 109.689C324.978 109.807 324.937 109.921 324.86 110.01C324.778 110.105 324.662 110.164 324.537 110.174C324.412 110.184 324.288 110.143 324.192 110.062L322.607 108.698L295.645 85.5372L220.025 20.5671C219.593 20.1989 219.044 19.9969 218.476 19.9978C217.908 19.9987 217.359 20.2023 216.929 20.5719L115.095 108.792L114.176 109.585C114.141 109.616 114.101 109.642 114.058 109.661C113.982 109.694 113.899 109.707 113.816 109.699C113.698 109.686 113.589 109.631 113.509 109.543C113.468 109.496 113.436 109.442 113.416 109.384C113.396 109.325 113.388 109.263 113.392 109.201C113.396 109.139 113.412 109.079 113.439 109.023C113.467 108.968 113.505 108.918 113.551 108.877L113.679 108.764L216.309 19.8591C216.912 19.3427 217.68 19.0579 218.475 19.0562C219.27 19.0544 220.039 19.3358 220.644 19.8497L296.289 84.8387L324.808 109.345C324.857 109.388 324.898 109.44 324.926 109.5C324.955 109.559 324.971 109.623 324.973 109.689Z" fill="#3F3D56"/>
<path d="M267.476 123.627L266.231 120.21L261.943 108.41L252.703 83.0029L242.375 54.603L223.749 3.37739C223.383 2.37845 222.635 1.56474 221.669 1.11445C220.703 0.664163 219.597 0.613997 218.594 0.974939L110.905 39.9098C109.903 40.2741 109.086 41.0197 108.635 41.9833C108.183 42.9468 108.133 44.0495 108.496 45.0498L134.903 117.671L135.353 118.912L163.072 131.439L170.863 134.96L172.127 135.531L205.114 150.441L206.392 149.979L228.028 142.158L260.665 130.358L265.062 128.768C266.065 128.404 266.882 127.658 267.334 126.695C267.787 125.731 267.838 124.628 267.476 123.627Z" fill="#E6E6E6"/>
<path d="M222.319 63.1364C221.782 61.6663 220.682 60.4685 219.261 59.8058C217.839 59.1431 216.212 59.0695 214.737 59.6012L172.127 75.0118L151.551 82.4504C150.819 82.7139 150.148 83.1185 149.573 83.6411C148.999 84.1637 148.534 84.794 148.204 85.4959C147.874 86.1979 147.687 86.9578 147.652 87.7322C147.616 88.5066 147.735 89.2803 148 90.0091C148.265 90.7378 148.671 91.4074 149.196 91.9794C149.72 92.5515 150.353 93.0148 151.057 93.3429C151.762 93.6711 152.524 93.8576 153.3 93.8918C154.077 93.926 154.853 93.8073 155.583 93.5423L172.127 87.5622L218.774 70.6978C220.249 70.1621 221.45 69.0653 222.114 67.6479C222.779 66.2304 222.853 64.608 222.319 63.1364Z" fill="white"/>
<path d="M229.822 83.7721C229.285 82.302 228.185 81.1042 226.763 80.4415C225.342 79.7788 223.715 79.7052 222.239 80.2369L215.02 82.847L172.126 98.3568L159.053 103.081C157.579 103.616 156.377 104.712 155.713 106.129C155.049 107.546 154.976 109.168 155.51 110.639C156.045 112.109 157.143 113.308 158.563 113.972C159.984 114.635 161.61 114.71 163.086 114.178L172.126 110.907L226.277 91.3288C226.4 91.2863 226.518 91.2344 226.636 91.1825C228.011 90.5809 229.105 89.4807 229.697 88.1046C230.288 86.7286 230.333 85.1798 229.822 83.7721Z" fill="white"/>
<path d="M237.405 104.625C236.869 103.155 235.77 101.957 234.349 101.294C232.929 100.631 231.302 100.558 229.827 101.089L209.582 108.41L193.91 114.079L172.127 121.952L166.636 123.939C165.367 124.4 164.294 125.279 163.594 126.431C162.895 127.582 162.61 128.938 162.788 130.273C162.842 130.67 162.937 131.061 163.072 131.439L170.863 134.96L172.127 134.502H172.136L211.665 120.21L233.86 112.186C235.335 111.651 236.537 110.555 237.202 109.137C237.867 107.719 237.94 106.096 237.405 104.625H237.405Z" fill="white"/>
<path d="M193.039 42.8503C192.502 41.3801 191.402 40.1824 189.981 39.5197C188.559 38.857 186.932 38.7834 185.456 39.315L160.985 48.1602C159.51 48.6945 158.309 49.7906 157.645 51.2077C156.98 52.6247 156.908 54.2467 157.442 55.7173C157.976 57.1879 159.075 58.3868 160.495 59.0505C161.916 59.7142 163.542 59.7884 165.017 59.2568L172.761 56.4579L177.887 54.6029L189.494 50.4069C190.968 49.8723 192.169 48.7764 192.834 47.3597C193.498 45.943 193.572 44.3212 193.039 42.8503Z" fill="white"/>
<path d="M290.699 54.6025H176.15C175.475 54.6032 174.81 54.7735 174.218 55.0977C173.626 55.4218 173.125 55.8895 172.761 56.4575C172.346 57.1006 172.126 57.8496 172.127 58.6145V135.531L205.114 150.441L209.762 152.541L217.104 155.86C217.534 156.053 218 156.153 218.472 156.153C218.943 156.153 219.41 156.053 219.84 155.86L227.181 152.541L250.157 142.158L271.571 132.477L294.722 122.018V58.6145C294.721 57.5507 294.297 56.5306 293.543 55.7784C292.788 55.0261 291.765 54.6032 290.699 54.6025Z" fill="#CCA8FF"/>
<path d="M267.032 108.41H199.818C198.289 108.411 196.821 109.002 195.719 110.058C194.618 111.115 193.97 112.556 193.91 114.079C193.902 114.156 193.899 114.233 193.901 114.31C193.903 115.874 194.527 117.374 195.636 118.48C196.745 119.586 198.249 120.208 199.818 120.21H267.032C268.601 120.21 270.106 119.588 271.216 118.482C272.325 117.376 272.948 115.875 272.948 114.31C272.948 112.745 272.325 111.245 271.216 110.138C270.106 109.032 268.601 108.41 267.032 108.41Z" fill="white"/>
<path d="M270.861 131.764C269.794 130.854 268.435 130.355 267.031 130.358H199.817C198.248 130.358 196.743 130.98 195.633 132.086C194.524 133.192 193.9 134.693 193.9 136.258C193.9 137.823 194.524 139.323 195.633 140.43C196.743 141.536 198.248 142.158 199.817 142.158H250.157L271.571 132.477C271.355 132.22 271.117 131.982 270.861 131.764Z" fill="white"/>
<path d="M209.762 152.542L217.103 155.86C217.533 156.053 217.999 156.153 218.471 156.153C218.943 156.153 219.409 156.053 219.839 155.86L227.181 152.542H209.762Z" fill="white"/>
<path d="M251.998 83.2574C251.581 82.1216 250.825 81.1409 249.831 80.4478C248.837 79.7547 247.654 79.3828 246.441 79.3823H220.407C219.27 79.3834 218.158 79.7106 217.203 80.3249C216.248 80.9392 215.49 81.8147 215.02 82.8468C214.67 83.611 214.489 84.4418 214.49 85.2823C214.492 86.8463 215.117 88.3457 216.226 89.4517C217.335 90.5577 218.838 91.18 220.407 91.1822H246.441C247.393 91.1823 248.33 90.9534 249.174 90.5149C250.019 90.0764 250.744 89.4413 251.29 88.6634C251.835 87.8856 252.184 86.988 252.308 86.0469C252.431 85.1057 252.325 84.1488 251.998 83.2574Z" fill="white"/>
<path d="M247.861 142.158L224.885 152.542L219.447 155.001C219.14 155.139 218.808 155.21 218.471 155.21C218.135 155.21 217.803 155.139 217.496 155.001L212.058 152.542H209.762L217.103 155.86C217.533 156.054 218 156.154 218.471 156.154C218.943 156.154 219.41 156.054 219.84 155.86L227.181 152.542L250.157 142.158H247.861ZM247.861 142.158L224.885 152.542L219.447 155.001C219.14 155.139 218.808 155.21 218.471 155.21C218.135 155.21 217.803 155.139 217.496 155.001L212.058 152.542H209.762L217.103 155.86C217.533 156.054 218 156.154 218.471 156.154C218.943 156.154 219.41 156.054 219.84 155.86L227.181 152.542L250.157 142.158H247.861ZM247.861 142.158L224.885 152.542L219.447 155.001C219.14 155.139 218.808 155.21 218.471 155.21C218.135 155.21 217.803 155.139 217.496 155.001L212.058 152.542H209.762L217.103 155.86C217.533 156.054 218 156.154 218.471 156.154C218.943 156.154 219.41 156.054 219.84 155.86L227.181 152.542L250.157 142.158H247.861ZM324.973 109.689C324.798 109.516 324.606 109.361 324.4 109.227C323.935 108.926 323.402 108.748 322.849 108.707C322.296 108.667 321.742 108.766 321.238 108.996L270.861 131.765L247.861 142.158L224.885 152.542L219.447 155.001C219.14 155.139 218.808 155.21 218.471 155.21C218.135 155.21 217.803 155.139 217.496 155.001L212.058 152.542L206.392 149.979L172.136 134.502L172.127 134.498L162.788 130.273L134.903 117.671L115.705 108.996C115.509 108.906 115.305 108.837 115.094 108.793C114.631 108.677 114.147 108.667 113.679 108.764C112.93 108.917 112.257 109.323 111.774 109.912C111.29 110.502 111.025 111.24 111.023 112.002V230.534C111.024 231.41 111.374 232.25 111.995 232.869C112.616 233.489 113.458 233.837 114.337 233.838H322.606C323.485 233.837 324.327 233.489 324.948 232.869C325.569 232.25 325.919 231.41 325.92 230.534V112.002C325.921 111.137 325.581 110.306 324.973 109.689V109.689ZM324.973 230.534C324.973 231.16 324.723 231.76 324.279 232.203C323.836 232.645 323.234 232.894 322.606 232.894H114.337C113.709 232.894 113.107 232.645 112.664 232.203C112.22 231.76 111.97 231.16 111.97 230.534V112.002C111.97 111.608 112.07 111.22 112.259 110.873C112.448 110.527 112.722 110.234 113.054 110.02C113.288 109.871 113.546 109.762 113.816 109.699C113.896 109.682 113.976 109.669 114.058 109.661C114.15 109.648 114.243 109.641 114.337 109.642C114.673 109.643 115.006 109.715 115.312 109.855L135.353 118.912L163.072 131.439L170.863 134.96L172.127 135.531L205.114 150.441L209.762 152.542L217.103 155.86C217.533 156.054 218 156.154 218.471 156.154C218.943 156.154 219.41 156.054 219.839 155.86L227.181 152.542L250.157 142.158L271.571 132.477L321.631 109.855C321.991 109.692 322.387 109.622 322.781 109.651C323.175 109.679 323.556 109.806 323.889 110.02C323.927 110.042 323.963 110.068 323.998 110.095C324.036 110.12 324.071 110.148 324.102 110.18C324.374 110.4 324.594 110.678 324.744 110.993C324.895 111.308 324.973 111.653 324.973 112.002L324.973 230.534ZM247.861 142.158L224.885 152.542L219.447 155.001C219.14 155.139 218.808 155.21 218.471 155.21C218.135 155.21 217.803 155.139 217.496 155.001L212.058 152.542H209.762L217.103 155.86C217.533 156.054 218 156.154 218.471 156.154C218.943 156.154 219.41 156.054 219.84 155.86L227.181 152.542L250.157 142.158H247.861ZM247.861 142.158L224.885 152.542L219.447 155.001C219.14 155.139 218.808 155.21 218.471 155.21C218.135 155.21 217.803 155.139 217.496 155.001L212.058 152.542H209.762L217.103 155.86C217.533 156.054 218 156.154 218.471 156.154C218.943 156.154 219.41 156.054 219.84 155.86L227.181 152.542L250.157 142.158H247.861ZM170.863 134.96L172.127 135.531V134.502L170.863 134.96ZM247.861 142.158L224.885 152.542L219.447 155.001C219.14 155.139 218.808 155.21 218.471 155.21C218.135 155.21 217.803 155.139 217.496 155.001L212.058 152.542H209.762L217.103 155.86C217.533 156.054 218 156.154 218.471 156.154C218.943 156.154 219.41 156.054 219.84 155.86L227.181 152.542L250.157 142.158H247.861Z" fill="#3F3D56"/>
<path d="M83.0837 233.838H29.5964C29.4708 233.838 29.3504 233.788 29.2617 233.7C29.1729 233.611 29.123 233.491 29.123 233.366C29.123 233.241 29.1729 233.121 29.2617 233.032C29.3504 232.944 29.4708 232.894 29.5964 232.894H83.0837C83.2093 232.894 83.3297 232.944 83.4184 233.032C83.5072 233.121 83.5571 233.241 83.5571 233.366C83.5571 233.491 83.5072 233.611 83.4184 233.7C83.3297 233.788 83.2093 233.838 83.0837 233.838Z" fill="#3F3D56"/>
<path d="M53.1976 81.6743C52.3244 81.2324 51.5983 80.5476 51.1072 79.7028C50.6162 78.858 50.3812 77.8894 50.4308 76.9142C50.4803 75.9389 50.8123 74.999 51.3865 74.208C51.9607 73.417 52.7525 72.8089 53.6661 72.4574C57.1743 71.1074 61.1071 73.8625 64.7845 73.0792C68.4497 72.2985 70.57 67.9291 69.6951 64.2951C68.8203 60.661 65.6361 57.9238 62.1249 56.6166C59.8317 55.765 57.3759 55.4385 54.9391 55.6612C52.5023 55.8839 50.1469 56.6502 48.0472 57.9033C45.9692 59.1932 44.2386 60.9696 43.0057 63.0782C41.7729 65.1867 41.0753 67.5637 40.9734 70.0023C40.9256 72.4431 41.5237 74.8534 42.7073 76.9905C43.8908 79.1275 45.6182 80.9158 47.7154 82.1754C48.6501 82.7126 49.738 83.144 50.7891 82.9021C51.6521 82.6226 52.4651 82.2081 53.1976 81.6743Z" fill="#2F2E41"/>
<path d="M49.4301 57.6206C46.3366 53.5292 42.1607 50.168 37.3014 48.5016C32.4422 46.8351 26.8893 46.9689 22.3256 49.3239C17.7619 51.6789 14.3584 56.356 14.0032 61.4677C13.4119 69.9753 20.7021 77.2071 21.4503 85.7024C21.6874 88.3951 21.2491 91.1043 20.1748 93.5861C19.1006 96.0678 17.4241 98.2442 15.2963 99.919C13.1686 101.594 10.6565 102.715 7.98627 103.18C5.31604 103.646 2.57155 103.442 0 102.587C1.83161 104.091 3.9552 105.2 6.2374 105.846C8.51959 106.492 10.9111 106.66 13.2616 106.34C15.6083 105.989 17.8472 105.121 19.8159 103.8C21.7846 102.479 23.4339 100.738 24.6441 98.7026C26.2848 95.86 26.9585 92.5581 27.2202 89.2887C27.6313 84.1192 27.0746 78.9186 25.5788 73.952C24.7611 71.2422 23.6521 68.4536 24.1707 65.6715C24.4663 64.2244 25.1817 62.8957 26.2282 61.8507C27.2747 60.8057 28.6061 60.0903 30.0569 59.7934C32.4015 59.3553 34.7987 60.0689 37.0374 60.8901C39.2761 61.7112 41.5333 62.6616 43.9181 62.7159C46.3029 62.7703 48.9004 61.6818 49.822 59.4879L49.4301 57.6206Z" fill="#2F2E41"/>
</g>
<defs>
<clipPath id="clip0_1417_2197">
<rect width="360" height="233.104" fill="white" transform="translate(0 0.733887)"/>
</clipPath>
</defs>
</svg>
